G75*
%MOIN*%
%OFA0B0*%
%FSLAX24Y24*%
%IPPOS*%
%LPD*%
%AMOC8*
5,1,8,0,0,1.08239X$1,22.5*
%
%ADD10C,0.0020*%
%ADD11C,0.0100*%
%ADD12R,0.0118X0.0118*%
%ADD13C,0.0080*%
%ADD14C,0.0060*%
D10*
X009082Y007743D02*
X009082Y010443D01*
X009382Y010443D02*
X009382Y007743D01*
X009383Y007705D01*
X009388Y007668D01*
X009395Y007631D01*
X009404Y007595D01*
X009417Y007559D01*
X009432Y007525D01*
X010332Y007082D02*
X010377Y007114D01*
X010419Y007150D01*
X010459Y007189D01*
X010496Y007231D01*
X010530Y007274D01*
X010561Y007321D01*
X010589Y007369D01*
X010613Y007419D01*
X010634Y007470D01*
X010651Y007523D01*
X010665Y007577D01*
X010674Y007632D01*
X010680Y007687D01*
X010682Y007743D01*
X010682Y010443D01*
X010382Y010443D02*
X010382Y007743D01*
X010381Y007705D01*
X010376Y007668D01*
X010369Y007631D01*
X010360Y007595D01*
X010347Y007559D01*
X010332Y007525D01*
X009432Y007082D02*
X009387Y007114D01*
X009345Y007150D01*
X009305Y007189D01*
X009268Y007230D01*
X009234Y007274D01*
X009203Y007321D01*
X009175Y007369D01*
X009151Y007419D01*
X009130Y007470D01*
X009113Y007523D01*
X009099Y007577D01*
X009090Y007632D01*
X009084Y007687D01*
X009082Y007743D01*
X009882Y008643D02*
X009882Y008843D01*
X009882Y009343D02*
X009882Y009543D01*
X010682Y010443D02*
X010680Y010499D01*
X010674Y010554D01*
X010665Y010609D01*
X010651Y010663D01*
X010634Y010716D01*
X010613Y010767D01*
X010589Y010817D01*
X010561Y010865D01*
X010530Y010912D01*
X010496Y010956D01*
X010459Y010997D01*
X010419Y011036D01*
X010377Y011072D01*
X010332Y011104D01*
X009432Y011104D02*
X009387Y011072D01*
X009345Y011036D01*
X009305Y010997D01*
X009268Y010955D01*
X009234Y010912D01*
X009203Y010865D01*
X009175Y010817D01*
X009151Y010767D01*
X009130Y010716D01*
X009113Y010663D01*
X009099Y010609D01*
X009090Y010554D01*
X009084Y010499D01*
X009082Y010443D01*
X009382Y010443D02*
X009383Y010481D01*
X009388Y010518D01*
X009395Y010555D01*
X009404Y010591D01*
X009417Y010627D01*
X009432Y010661D01*
X010332Y010661D02*
X010347Y010627D01*
X010360Y010591D01*
X010369Y010555D01*
X010376Y010518D01*
X010381Y010481D01*
X010382Y010443D01*
X006404Y016553D02*
X006304Y016553D01*
X006354Y016553D02*
X006354Y016753D01*
X006304Y016753D01*
X006209Y016753D02*
X006159Y016753D01*
X006059Y016653D01*
X005964Y016653D02*
X005764Y016653D01*
X005764Y016603D02*
X005764Y016703D01*
X005814Y016753D01*
X005914Y016753D01*
X005964Y016703D01*
X005964Y016653D01*
X005914Y016553D02*
X005814Y016553D01*
X005764Y016603D01*
X005670Y016553D02*
X005670Y016854D01*
X005670Y016753D02*
X005520Y016753D01*
X005469Y016703D01*
X005469Y016603D01*
X005520Y016553D01*
X005670Y016553D01*
X005570Y016933D02*
X005520Y016933D01*
X005570Y016933D02*
X005621Y016983D01*
X005621Y017233D01*
X005621Y017033D02*
X005470Y017033D01*
X005420Y017083D01*
X005420Y017233D01*
X005326Y017183D02*
X005326Y017083D01*
X005276Y017033D01*
X005126Y017033D01*
X005126Y017334D01*
X005126Y017233D02*
X005276Y017233D01*
X005326Y017183D01*
X005227Y017513D02*
X005127Y017513D01*
X005077Y017563D01*
X005077Y017663D01*
X005127Y017713D01*
X005227Y017713D01*
X005277Y017663D01*
X005277Y017613D01*
X005077Y017613D01*
X004982Y017663D02*
X004932Y017613D01*
X004782Y017613D01*
X004782Y017513D02*
X004782Y017814D01*
X004932Y017814D01*
X004982Y017764D01*
X004982Y017663D01*
X004882Y017613D02*
X004982Y017513D01*
X004737Y017334D02*
X004737Y017033D01*
X004586Y017033D01*
X004536Y017083D01*
X004536Y017183D01*
X004586Y017233D01*
X004737Y017233D01*
X004684Y016854D02*
X004684Y016553D01*
X004587Y016553D02*
X004487Y016553D01*
X004537Y016553D02*
X004537Y016854D01*
X004487Y016854D01*
X004393Y016753D02*
X004393Y016553D01*
X004393Y016703D02*
X004193Y016703D01*
X004193Y016753D02*
X004193Y016553D01*
X004193Y016753D02*
X004293Y016854D01*
X004393Y016753D01*
X004392Y017033D02*
X004292Y017033D01*
X004242Y017083D01*
X004242Y017183D01*
X004292Y017233D01*
X004392Y017233D01*
X004442Y017183D01*
X004442Y017133D01*
X004242Y017133D01*
X004147Y017183D02*
X004147Y017033D01*
X004147Y017183D02*
X004097Y017233D01*
X003947Y017233D01*
X003947Y017033D01*
X003853Y017033D02*
X003702Y017033D01*
X003652Y017083D01*
X003652Y017183D01*
X003702Y017233D01*
X003853Y017233D01*
X003853Y016983D01*
X003803Y016933D01*
X003753Y016933D01*
X003753Y016753D02*
X003804Y016703D01*
X003804Y016553D01*
X003753Y016753D02*
X003603Y016753D01*
X003603Y016553D01*
X003509Y016553D02*
X003359Y016553D01*
X003309Y016603D01*
X003359Y016653D01*
X003509Y016653D01*
X003509Y016703D02*
X003509Y016553D01*
X003509Y016703D02*
X003459Y016753D01*
X003359Y016753D01*
X003213Y016753D02*
X003163Y016753D01*
X003063Y016653D01*
X003063Y016553D02*
X003063Y016753D01*
X002967Y016553D02*
X002867Y016553D01*
X002917Y016553D02*
X002917Y016753D01*
X002867Y016753D01*
X002917Y016854D02*
X002917Y016904D01*
X002917Y017033D02*
X002867Y017083D01*
X002867Y017183D01*
X002917Y017233D01*
X003017Y017233D01*
X003067Y017183D01*
X003067Y017133D01*
X002867Y017133D01*
X002772Y017083D02*
X002772Y017284D01*
X002722Y017334D01*
X002572Y017334D01*
X002572Y017033D01*
X002722Y017033D01*
X002772Y017083D01*
X002917Y017033D02*
X003017Y017033D01*
X003161Y017033D02*
X003311Y017033D01*
X003362Y017083D01*
X003311Y017133D01*
X003211Y017133D01*
X003161Y017183D01*
X003211Y017233D01*
X003362Y017233D01*
X003456Y017233D02*
X003506Y017233D01*
X003506Y017033D01*
X003456Y017033D02*
X003556Y017033D01*
X003506Y017334D02*
X003506Y017384D01*
X003558Y017513D02*
X003408Y017513D01*
X003358Y017563D01*
X003358Y017663D01*
X003408Y017713D01*
X003558Y017713D01*
X003652Y017663D02*
X003702Y017713D01*
X003803Y017713D01*
X003853Y017663D01*
X003853Y017513D01*
X003947Y017563D02*
X003947Y017663D01*
X003997Y017713D01*
X004097Y017713D01*
X004147Y017663D01*
X004147Y017613D01*
X003947Y017613D01*
X003947Y017563D02*
X003997Y017513D01*
X004097Y017513D01*
X004242Y017513D02*
X004242Y017713D01*
X004242Y017613D02*
X004342Y017713D01*
X004392Y017713D01*
X004340Y017993D02*
X004540Y018294D01*
X004245Y018294D02*
X004045Y017993D01*
X003656Y018043D02*
X003606Y017993D01*
X003456Y017993D01*
X003456Y018294D01*
X003606Y018294D01*
X003656Y018244D01*
X003656Y018193D01*
X003606Y018143D01*
X003456Y018143D01*
X003362Y018143D02*
X003161Y018143D01*
X003067Y018143D02*
X003017Y018093D01*
X002867Y018093D01*
X002867Y017993D02*
X002867Y018294D01*
X003017Y018294D01*
X003067Y018244D01*
X003067Y018143D01*
X003261Y018244D02*
X003261Y018043D01*
X003211Y017764D02*
X003211Y017563D01*
X003261Y017513D01*
X003067Y017513D02*
X003067Y017663D01*
X003017Y017713D01*
X002917Y017713D01*
X002917Y017613D02*
X003067Y017613D01*
X003067Y017513D02*
X002917Y017513D01*
X002867Y017563D01*
X002917Y017613D01*
X002772Y017563D02*
X002722Y017513D01*
X002622Y017513D01*
X002572Y017563D01*
X002572Y017764D01*
X002622Y017814D01*
X002722Y017814D01*
X002772Y017764D01*
X002722Y017993D02*
X002622Y017993D01*
X002572Y018043D01*
X002572Y018244D01*
X002622Y018294D01*
X002722Y018294D01*
X002772Y018244D01*
X002772Y018043D02*
X002722Y017993D01*
X003161Y017713D02*
X003261Y017713D01*
X003656Y018093D02*
X003606Y018143D01*
X003656Y018093D02*
X003656Y018043D01*
X003652Y017814D02*
X003652Y017513D01*
X002772Y016854D02*
X002772Y016553D01*
X002672Y016753D02*
X002772Y016854D01*
X002672Y016753D02*
X002572Y016854D01*
X002572Y016553D01*
X004684Y016703D02*
X004734Y016753D01*
X004834Y016753D01*
X004884Y016703D01*
X004884Y016553D01*
X004978Y016603D02*
X005028Y016653D01*
X005179Y016653D01*
X005179Y016703D02*
X005179Y016553D01*
X005028Y016553D01*
X004978Y016603D01*
X005028Y016753D02*
X005129Y016753D01*
X005179Y016703D01*
X005273Y016753D02*
X005323Y016753D01*
X005323Y016553D01*
X005273Y016553D02*
X005373Y016553D01*
X005323Y016854D02*
X005323Y016904D01*
X005471Y017513D02*
X005571Y017713D01*
X005371Y017713D02*
X005471Y017513D01*
X005374Y017993D02*
X005274Y017993D01*
X005224Y018043D01*
X005224Y018143D01*
X005274Y018193D01*
X005374Y018193D01*
X005424Y018143D01*
X005424Y018043D01*
X005374Y017993D01*
X005519Y018043D02*
X005519Y018193D01*
X005519Y018043D02*
X005569Y017993D01*
X005719Y017993D01*
X005719Y018193D01*
X005813Y018193D02*
X005813Y017993D01*
X005813Y018193D02*
X005963Y018193D01*
X006013Y018143D01*
X006013Y017993D01*
X006108Y018043D02*
X006108Y018143D01*
X006158Y018193D01*
X006308Y018193D01*
X006308Y018294D02*
X006308Y017993D01*
X006158Y017993D01*
X006108Y018043D01*
X006111Y017814D02*
X006011Y017814D01*
X005961Y017764D01*
X005961Y017563D01*
X006161Y017764D01*
X006161Y017563D01*
X006111Y017513D01*
X006011Y017513D01*
X005961Y017563D01*
X006161Y017764D02*
X006111Y017814D01*
X006255Y017713D02*
X006355Y017814D01*
X006355Y017513D01*
X006255Y017513D02*
X006455Y017513D01*
X006354Y016904D02*
X006354Y016854D01*
X006059Y016753D02*
X006059Y016553D01*
X005079Y017993D02*
X004979Y017993D01*
X004929Y018043D01*
X004979Y018143D02*
X004929Y018193D01*
X004929Y018244D01*
X004979Y018294D01*
X005079Y018294D01*
X005129Y018244D01*
X005079Y018143D02*
X004979Y018143D01*
X005079Y018143D02*
X005129Y018093D01*
X005129Y018043D01*
X005079Y017993D01*
D11*
X004812Y012222D02*
X007253Y012222D01*
X007361Y012114D01*
X007361Y009673D01*
X007253Y009565D01*
X004812Y009565D01*
X004703Y009673D01*
X004703Y012114D01*
X004812Y012222D01*
X005009Y011681D02*
X005011Y011711D01*
X005017Y011741D01*
X005026Y011770D01*
X005039Y011797D01*
X005056Y011822D01*
X005075Y011845D01*
X005098Y011866D01*
X005123Y011883D01*
X005149Y011897D01*
X005178Y011907D01*
X005207Y011914D01*
X005237Y011917D01*
X005268Y011916D01*
X005298Y011911D01*
X005327Y011902D01*
X005354Y011890D01*
X005380Y011875D01*
X005404Y011856D01*
X005425Y011834D01*
X005443Y011810D01*
X005458Y011783D01*
X005469Y011755D01*
X005477Y011726D01*
X005481Y011696D01*
X005481Y011666D01*
X005477Y011636D01*
X005469Y011607D01*
X005458Y011579D01*
X005443Y011552D01*
X005425Y011528D01*
X005404Y011506D01*
X005380Y011487D01*
X005354Y011472D01*
X005327Y011460D01*
X005298Y011451D01*
X005268Y011446D01*
X005237Y011445D01*
X005207Y011448D01*
X005178Y011455D01*
X005149Y011465D01*
X005123Y011479D01*
X005098Y011496D01*
X005075Y011517D01*
X005056Y011540D01*
X005039Y011565D01*
X005026Y011592D01*
X005017Y011621D01*
X005011Y011651D01*
X005009Y011681D01*
D12*
X007432Y014043D03*
X007432Y014293D03*
X008382Y011743D03*
X008662Y011153D03*
X008352Y011033D03*
X008312Y010143D03*
X007832Y009343D03*
D13*
X002482Y002543D02*
X002732Y002293D01*
X003232Y002293D01*
X003482Y002543D01*
X003482Y003043D01*
X003232Y003293D01*
X003482Y003543D01*
X003482Y004043D01*
X003232Y004293D01*
X003482Y004543D01*
X003482Y005043D01*
X003232Y005293D01*
X003482Y005543D01*
X003482Y006043D01*
X003232Y006293D01*
X003482Y006543D01*
X003482Y007043D01*
X003232Y007293D01*
X003482Y007543D01*
X003482Y008043D01*
X003232Y008293D01*
X002732Y008293D01*
X002482Y008043D01*
X002482Y007543D01*
X002732Y007293D01*
X002482Y007043D01*
X002482Y006543D01*
X002732Y006293D01*
X003232Y006293D01*
X002732Y006293D01*
X002482Y006043D01*
X002482Y005543D01*
X002732Y005293D01*
X002482Y005043D01*
X002482Y004543D01*
X002732Y004293D01*
X002482Y004043D01*
X002482Y003543D01*
X002732Y003293D01*
X002482Y003043D01*
X002482Y002543D01*
X003632Y002543D02*
X003632Y003043D01*
X003882Y003293D01*
X004382Y003293D01*
X004632Y003043D01*
X004882Y003293D01*
X005382Y003293D01*
X005632Y003043D01*
X005882Y003293D01*
X006382Y003293D01*
X006632Y003043D01*
X006882Y003293D01*
X007382Y003293D01*
X007632Y003043D01*
X007632Y002543D01*
X007382Y002293D01*
X006882Y002293D01*
X006632Y002543D01*
X006382Y002293D01*
X005882Y002293D01*
X005632Y002543D01*
X005382Y002293D01*
X004882Y002293D01*
X004632Y002543D01*
X004382Y002293D01*
X003882Y002293D01*
X003632Y002543D01*
X004694Y004043D02*
X005670Y004043D01*
X006182Y004437D02*
X006182Y005650D01*
X005682Y006043D02*
X004694Y006043D01*
X004182Y005650D02*
X004182Y004437D01*
X004682Y005043D02*
X004684Y005087D01*
X004690Y005131D01*
X004700Y005174D01*
X004713Y005216D01*
X004730Y005257D01*
X004751Y005296D01*
X004775Y005333D01*
X004802Y005368D01*
X004832Y005400D01*
X004865Y005430D01*
X004901Y005456D01*
X004938Y005480D01*
X004978Y005499D01*
X005019Y005516D01*
X005062Y005528D01*
X005105Y005537D01*
X005149Y005542D01*
X005193Y005543D01*
X005237Y005540D01*
X005281Y005533D01*
X005324Y005522D01*
X005366Y005508D01*
X005406Y005490D01*
X005445Y005468D01*
X005481Y005444D01*
X005515Y005416D01*
X005547Y005385D01*
X005576Y005351D01*
X005602Y005315D01*
X005624Y005277D01*
X005643Y005237D01*
X005658Y005195D01*
X005670Y005153D01*
X005678Y005109D01*
X005682Y005065D01*
X005682Y005021D01*
X005678Y004977D01*
X005670Y004933D01*
X005658Y004891D01*
X005643Y004849D01*
X005624Y004809D01*
X005602Y004771D01*
X005576Y004735D01*
X005547Y004701D01*
X005515Y004670D01*
X005481Y004642D01*
X005445Y004618D01*
X005406Y004596D01*
X005366Y004578D01*
X005324Y004564D01*
X005281Y004553D01*
X005237Y004546D01*
X005193Y004543D01*
X005149Y004544D01*
X005105Y004549D01*
X005062Y004558D01*
X005019Y004570D01*
X004978Y004587D01*
X004938Y004606D01*
X004901Y004630D01*
X004865Y004656D01*
X004832Y004686D01*
X004802Y004718D01*
X004775Y004753D01*
X004751Y004790D01*
X004730Y004829D01*
X004713Y004870D01*
X004700Y004912D01*
X004690Y004955D01*
X004684Y004999D01*
X004682Y005043D01*
X003232Y008293D02*
X002732Y008293D01*
X002482Y008543D01*
X002482Y009043D01*
X002732Y009293D01*
X002482Y009543D01*
X002482Y010043D01*
X002732Y010293D01*
X002482Y010543D01*
X002482Y011043D01*
X002732Y011293D01*
X002482Y011543D01*
X002482Y012043D01*
X002732Y012293D01*
X003232Y012293D01*
X003482Y012043D01*
X003482Y011543D01*
X003232Y011293D01*
X003482Y011043D01*
X003482Y010543D01*
X003232Y010293D01*
X003482Y010043D01*
X003482Y009543D01*
X003232Y009293D01*
X003482Y009043D01*
X003482Y008543D01*
X003232Y008293D01*
X003232Y012293D02*
X002732Y012293D01*
X002482Y012543D01*
X002482Y013043D01*
X002732Y013293D01*
X002482Y013543D01*
X002482Y014043D01*
X002732Y014293D01*
X003232Y014293D01*
X003482Y014043D01*
X003482Y013543D01*
X003232Y013293D01*
X003482Y013043D01*
X003482Y012543D01*
X003232Y012293D01*
X007482Y016229D02*
X007128Y016583D01*
X007128Y017253D01*
X007482Y016229D02*
X010356Y016229D01*
X010356Y017233D01*
X010356Y018454D02*
X010356Y019457D01*
X007482Y019457D01*
X007128Y019103D01*
X007128Y018454D01*
X007325Y017272D02*
X007355Y017201D01*
X007390Y017132D01*
X007427Y017065D01*
X007468Y016999D01*
X007512Y016936D01*
X007560Y016875D01*
X007610Y016816D01*
X007664Y016760D01*
X007720Y016707D01*
X007778Y016657D01*
X007839Y016610D01*
X007903Y016566D01*
X007969Y016525D01*
X008036Y016488D01*
X008105Y016454D01*
X008176Y016424D01*
X008249Y016397D01*
X008323Y016374D01*
X008397Y016354D01*
X008473Y016339D01*
X008549Y016327D01*
X008626Y016319D01*
X008703Y016315D01*
X008781Y016315D01*
X008858Y016319D01*
X008935Y016327D01*
X009011Y016339D01*
X009087Y016354D01*
X009161Y016374D01*
X009235Y016397D01*
X009308Y016424D01*
X009379Y016454D01*
X009448Y016488D01*
X009515Y016525D01*
X009581Y016566D01*
X009645Y016610D01*
X009706Y016657D01*
X009764Y016707D01*
X009820Y016760D01*
X009874Y016816D01*
X009924Y016875D01*
X009972Y016936D01*
X010016Y016999D01*
X010057Y017065D01*
X010094Y017132D01*
X010129Y017201D01*
X010159Y017272D01*
X010082Y015843D02*
X009832Y015593D01*
X009832Y015093D01*
X010082Y014843D01*
X009832Y014593D01*
X009832Y014093D01*
X010082Y013843D01*
X010582Y013843D01*
X010832Y014093D01*
X010832Y014593D01*
X010582Y014843D01*
X010832Y015093D01*
X010832Y015593D01*
X010582Y015843D01*
X010082Y015843D01*
X010082Y013493D02*
X010582Y013493D01*
X010832Y013243D01*
X010832Y012743D01*
X010582Y012493D01*
X010082Y012493D01*
X009832Y012743D01*
X009582Y012493D01*
X009082Y012493D01*
X008832Y012743D01*
X008582Y012493D01*
X008082Y012493D01*
X007832Y012743D01*
X007832Y013243D01*
X008082Y013493D01*
X008582Y013493D01*
X008832Y013243D01*
X009082Y013493D01*
X009582Y013493D01*
X009832Y013243D01*
X010082Y013493D01*
X010159Y018414D02*
X010129Y018485D01*
X010094Y018554D01*
X010057Y018621D01*
X010016Y018687D01*
X009972Y018750D01*
X009924Y018811D01*
X009874Y018870D01*
X009820Y018926D01*
X009764Y018979D01*
X009706Y019029D01*
X009645Y019076D01*
X009581Y019120D01*
X009515Y019161D01*
X009448Y019198D01*
X009379Y019232D01*
X009308Y019262D01*
X009235Y019289D01*
X009161Y019312D01*
X009087Y019332D01*
X009011Y019347D01*
X008935Y019359D01*
X008858Y019367D01*
X008781Y019371D01*
X008703Y019371D01*
X008626Y019367D01*
X008549Y019359D01*
X008473Y019347D01*
X008397Y019332D01*
X008323Y019312D01*
X008249Y019289D01*
X008176Y019262D01*
X008105Y019232D01*
X008036Y019198D01*
X007969Y019161D01*
X007903Y019120D01*
X007839Y019076D01*
X007778Y019029D01*
X007720Y018979D01*
X007664Y018926D01*
X007610Y018870D01*
X007560Y018811D01*
X007512Y018750D01*
X007468Y018687D01*
X007427Y018621D01*
X007390Y018554D01*
X007355Y018485D01*
X007325Y018414D01*
D14*
X009032Y011343D02*
X009432Y011343D01*
X009032Y011343D02*
X009015Y011341D01*
X008998Y011337D01*
X008982Y011330D01*
X008968Y011320D01*
X008955Y011307D01*
X008945Y011293D01*
X008938Y011277D01*
X008934Y011260D01*
X008932Y011243D01*
X008932Y006943D01*
X008934Y006926D01*
X008938Y006909D01*
X008945Y006893D01*
X008955Y006879D01*
X008968Y006866D01*
X008982Y006856D01*
X008998Y006849D01*
X009015Y006845D01*
X009032Y006843D01*
X009432Y006843D01*
X010332Y006843D02*
X010732Y006843D01*
X010749Y006845D01*
X010766Y006849D01*
X010782Y006856D01*
X010796Y006866D01*
X010809Y006879D01*
X010819Y006893D01*
X010826Y006909D01*
X010830Y006926D01*
X010832Y006943D01*
X010832Y011243D01*
X010830Y011260D01*
X010826Y011277D01*
X010819Y011293D01*
X010809Y011307D01*
X010796Y011320D01*
X010782Y011330D01*
X010766Y011337D01*
X010749Y011341D01*
X010732Y011343D01*
X010332Y011343D01*
X010132Y009343D02*
X009882Y009343D01*
X009632Y009343D01*
X009632Y009193D02*
X009632Y008993D01*
X010132Y008993D01*
X010132Y009193D01*
X009632Y009193D01*
X009632Y008843D02*
X009882Y008843D01*
X010132Y008843D01*
M02*
