G75*
%MOIN*%
%OFA0B0*%
%FSLAX24Y24*%
%IPPOS*%
%LPD*%
%AMOC8*
5,1,8,0,0,1.08239X$1,22.5*
%
%ADD10C,0.0000*%
%ADD11C,0.0051*%
%ADD12C,0.0020*%
%ADD13C,0.0060*%
%ADD14R,0.0591X0.0118*%
%ADD15R,0.0118X0.0591*%
%ADD16R,0.0169X0.0110*%
%ADD17R,0.0110X0.0169*%
%ADD18R,0.0354X0.0276*%
%ADD19R,0.0276X0.0354*%
%ADD20R,0.0300X0.0600*%
%ADD21R,0.0630X0.0709*%
%ADD22R,0.0394X0.0433*%
%ADD23C,0.0740*%
%ADD24R,0.0700X0.2000*%
%ADD25R,0.0740X0.0740*%
%ADD26R,0.1181X0.0984*%
%ADD27C,0.0100*%
%ADD28C,0.0310*%
%ADD29C,0.0090*%
%ADD30C,0.0120*%
%ADD31C,0.0357*%
%ADD32C,0.0240*%
%ADD33C,0.0160*%
D10*
X002282Y001893D02*
X002322Y020169D01*
X011142Y020173D01*
X011102Y001893D01*
X002282Y001893D01*
X004206Y015937D02*
X004208Y015967D01*
X004214Y015997D01*
X004223Y016026D01*
X004236Y016053D01*
X004253Y016078D01*
X004272Y016101D01*
X004295Y016122D01*
X004320Y016139D01*
X004346Y016153D01*
X004375Y016163D01*
X004404Y016170D01*
X004434Y016173D01*
X004465Y016172D01*
X004495Y016167D01*
X004524Y016158D01*
X004551Y016146D01*
X004577Y016131D01*
X004601Y016112D01*
X004622Y016090D01*
X004640Y016066D01*
X004655Y016039D01*
X004666Y016011D01*
X004674Y015982D01*
X004678Y015952D01*
X004678Y015922D01*
X004674Y015892D01*
X004666Y015863D01*
X004655Y015835D01*
X004640Y015808D01*
X004622Y015784D01*
X004601Y015762D01*
X004577Y015743D01*
X004551Y015728D01*
X004524Y015716D01*
X004495Y015707D01*
X004465Y015702D01*
X004434Y015701D01*
X004404Y015704D01*
X004375Y015711D01*
X004346Y015721D01*
X004320Y015735D01*
X004295Y015752D01*
X004272Y015773D01*
X004253Y015796D01*
X004236Y015821D01*
X004223Y015848D01*
X004214Y015877D01*
X004208Y015907D01*
X004206Y015937D01*
X004206Y018693D02*
X004208Y018723D01*
X004214Y018753D01*
X004223Y018782D01*
X004236Y018809D01*
X004253Y018834D01*
X004272Y018857D01*
X004295Y018878D01*
X004320Y018895D01*
X004346Y018909D01*
X004375Y018919D01*
X004404Y018926D01*
X004434Y018929D01*
X004465Y018928D01*
X004495Y018923D01*
X004524Y018914D01*
X004551Y018902D01*
X004577Y018887D01*
X004601Y018868D01*
X004622Y018846D01*
X004640Y018822D01*
X004655Y018795D01*
X004666Y018767D01*
X004674Y018738D01*
X004678Y018708D01*
X004678Y018678D01*
X004674Y018648D01*
X004666Y018619D01*
X004655Y018591D01*
X004640Y018564D01*
X004622Y018540D01*
X004601Y018518D01*
X004577Y018499D01*
X004551Y018484D01*
X004524Y018472D01*
X004495Y018463D01*
X004465Y018458D01*
X004434Y018457D01*
X004404Y018460D01*
X004375Y018467D01*
X004346Y018477D01*
X004320Y018491D01*
X004295Y018508D01*
X004272Y018529D01*
X004253Y018552D01*
X004236Y018577D01*
X004223Y018604D01*
X004214Y018633D01*
X004208Y018663D01*
X004206Y018693D01*
D11*
X002282Y001893D02*
X000475Y001897D01*
X001243Y001896D02*
X001143Y002919D01*
X001119Y002919D02*
X001371Y002919D01*
X001243Y001896D01*
X001347Y002919D01*
X001296Y002919D02*
X001243Y001896D01*
X001194Y002919D01*
X001119Y002919D02*
X001243Y001896D01*
X001283Y020172D01*
X001383Y019148D01*
X001406Y019148D02*
X001283Y020172D01*
X001178Y019148D01*
X001155Y019148D02*
X001406Y019148D01*
X001332Y019148D02*
X001283Y020172D01*
X001229Y019148D01*
X001155Y019148D02*
X001283Y020172D01*
X000515Y020173D02*
X002322Y020169D01*
X002282Y001893D02*
X002282Y000126D01*
X002282Y000893D02*
X003306Y000791D01*
X003306Y000768D02*
X002282Y000893D01*
X003306Y000996D01*
X003306Y001019D02*
X003306Y000768D01*
X003306Y000842D02*
X002282Y000893D01*
X003306Y000944D01*
X003306Y001019D02*
X002282Y000893D01*
X011102Y000893D01*
X010079Y000791D01*
X010079Y000768D02*
X011102Y000893D01*
X010079Y000996D01*
X010079Y001019D02*
X010079Y000768D01*
X010079Y000842D02*
X011102Y000893D01*
X010079Y000944D01*
X010079Y001019D02*
X011102Y000893D01*
X011102Y000126D02*
X011102Y001893D01*
D12*
X007191Y001185D02*
X006991Y001185D01*
X007141Y001335D01*
X007141Y001034D01*
X006893Y001034D02*
X006843Y001034D01*
X006843Y001085D01*
X006893Y001085D01*
X006893Y001034D01*
X006749Y001034D02*
X006549Y001034D01*
X006749Y001235D01*
X006749Y001285D01*
X006699Y001335D01*
X006599Y001335D01*
X006549Y001285D01*
X006454Y001285D02*
X006404Y001335D01*
X006304Y001335D01*
X006254Y001285D01*
X006454Y001285D02*
X006454Y001235D01*
X006254Y001034D01*
X006454Y001034D01*
D13*
X006241Y007283D02*
X006282Y007393D01*
X009282Y007893D02*
X009297Y007905D01*
X009282Y007893D02*
X009782Y007393D01*
X009882Y007193D01*
X008282Y012893D02*
X008332Y012993D01*
X008282Y012893D02*
X008282Y013893D01*
X008326Y013893D01*
X007364Y017843D02*
X007282Y017893D01*
X001008Y012494D02*
X001008Y012067D01*
X000581Y012495D01*
X000475Y012495D01*
X000368Y012389D01*
X000367Y012175D01*
X000474Y012068D01*
X000687Y011850D02*
X000686Y011423D01*
X000367Y011744D01*
X001007Y011743D01*
X001006Y011207D02*
X000899Y011207D01*
X000899Y011101D01*
X001006Y011100D01*
X001006Y011207D01*
X000899Y010883D02*
X000792Y010883D01*
X000685Y010777D01*
X000685Y010456D01*
X000898Y010456D01*
X001005Y010563D01*
X001005Y010776D01*
X000899Y010883D01*
X000685Y010456D02*
X000471Y010670D01*
X000365Y010884D01*
X000684Y010239D02*
X000684Y009812D01*
X000364Y010133D01*
X001004Y010132D01*
D14*
X004300Y010204D03*
X004300Y010007D03*
X004300Y009811D03*
X004300Y010401D03*
X004300Y010598D03*
X004300Y010795D03*
X004300Y010992D03*
X004300Y011189D03*
X004300Y011385D03*
X004300Y011582D03*
X004300Y011779D03*
X004300Y011976D03*
X007764Y011976D03*
X007764Y011779D03*
X007764Y011582D03*
X007764Y011385D03*
X007764Y011189D03*
X007764Y010992D03*
X007764Y010795D03*
X007764Y010598D03*
X007764Y010401D03*
X007764Y010204D03*
X007764Y010007D03*
X007764Y009811D03*
D15*
X007115Y009161D03*
X006918Y009161D03*
X006721Y009161D03*
X006524Y009161D03*
X006327Y009161D03*
X006130Y009161D03*
X005934Y009161D03*
X005737Y009161D03*
X005540Y009161D03*
X005343Y009161D03*
X005146Y009161D03*
X004949Y009161D03*
X004949Y012626D03*
X005146Y012626D03*
X005343Y012626D03*
X005540Y012626D03*
X005737Y012626D03*
X005934Y012626D03*
X006130Y012626D03*
X006327Y012626D03*
X006524Y012626D03*
X006721Y012626D03*
X006918Y012626D03*
X007115Y012626D03*
D16*
X008352Y011134D03*
X008352Y010933D03*
X008662Y011053D03*
X008662Y011254D03*
X008312Y010244D03*
X008312Y010043D03*
X007832Y009444D03*
X007832Y009243D03*
D17*
X008282Y011743D03*
X008482Y011743D03*
X007532Y014043D03*
X007532Y014293D03*
X007332Y014293D03*
X007332Y014043D03*
D18*
X006932Y014277D03*
X006932Y014789D03*
X008982Y012199D03*
X008982Y011687D03*
X004292Y009359D03*
X004292Y008847D03*
X002882Y014807D03*
X002882Y015319D03*
D19*
X003536Y015323D03*
X003536Y014803D03*
X004048Y014803D03*
X004048Y015323D03*
X005396Y014103D03*
X005908Y014103D03*
X006526Y013643D03*
X007038Y013643D03*
X008326Y013893D03*
X008838Y013893D03*
X008688Y009343D03*
X008176Y009343D03*
X007038Y008003D03*
X006858Y008463D03*
X006526Y008003D03*
X006346Y008463D03*
X004448Y008263D03*
X004448Y007683D03*
X003936Y007683D03*
X003936Y008263D03*
D20*
X004432Y006143D03*
X004432Y003943D03*
X005932Y003943D03*
X005932Y006143D03*
D21*
X006241Y007283D03*
X007343Y007283D03*
X006083Y014753D03*
X004981Y014753D03*
D22*
X003992Y014178D03*
X003992Y013509D03*
D23*
X002982Y013793D03*
X002982Y012793D03*
X002982Y011793D03*
X002982Y010793D03*
X002982Y009793D03*
X002982Y007793D03*
X002982Y006793D03*
X002982Y005793D03*
X002982Y004793D03*
X002982Y003793D03*
X004132Y002793D03*
X005132Y002793D03*
X006132Y002793D03*
X008332Y012993D03*
X009332Y012993D03*
X010332Y012993D03*
X010332Y014343D03*
X010332Y015343D03*
D24*
X009882Y010993D03*
X009882Y007193D03*
D25*
X007132Y002793D03*
X002982Y002793D03*
X002982Y008793D03*
D26*
X007364Y017843D03*
X010120Y017843D03*
D27*
X010332Y015343D02*
X006932Y015343D01*
X006283Y014794D01*
X006083Y014753D01*
X005912Y014633D02*
X005908Y014629D01*
X005908Y014103D01*
X005934Y014078D02*
X005934Y012626D01*
X006130Y012626D02*
X006132Y012627D01*
X006132Y013193D01*
X006432Y013493D01*
X006432Y013543D01*
X006482Y013193D02*
X006682Y013193D01*
X006482Y013193D02*
X006332Y013043D01*
X006332Y012793D01*
X005737Y012626D02*
X005737Y013733D01*
X005396Y014103D01*
X004981Y014519D01*
X004981Y014753D01*
X004912Y015333D02*
X005052Y015473D01*
X004912Y015333D02*
X004132Y015333D01*
X004072Y015263D02*
X004062Y015253D01*
X004062Y014843D01*
X003536Y014634D02*
X003992Y014178D01*
X003536Y014634D02*
X003536Y014803D01*
X003536Y015323D01*
X005282Y013543D02*
X005542Y013293D01*
X005542Y012843D01*
X005342Y012637D02*
X005343Y012626D01*
X005832Y011593D02*
X005122Y010883D01*
X005512Y010493D01*
X005512Y010313D01*
X005202Y010003D01*
X004642Y010003D01*
X004632Y010003D02*
X004314Y010003D01*
X004300Y010007D01*
X004300Y009811D02*
X004292Y009803D01*
X004292Y009359D01*
X004502Y010213D02*
X004502Y010393D01*
X004512Y010303D02*
X005022Y010303D01*
X004832Y010593D02*
X004304Y010593D01*
X004300Y010598D01*
X004298Y010793D02*
X004300Y010795D01*
X004298Y010793D02*
X003832Y010793D01*
X003782Y010743D01*
X003782Y010293D01*
X003582Y010043D01*
X003582Y009193D01*
X003182Y008793D01*
X002982Y008793D01*
X002982Y009793D02*
X003582Y010393D01*
X002982Y010793D02*
X003377Y011189D01*
X003790Y011385D02*
X003382Y011793D01*
X002982Y011793D01*
X003790Y011385D02*
X004300Y011385D01*
X004832Y010593D02*
X005122Y010883D01*
X005342Y009243D02*
X005342Y009043D01*
X005342Y008993D02*
X005332Y003593D01*
X005132Y003393D02*
X005142Y009193D01*
X004952Y009193D02*
X004942Y003713D01*
X004432Y003943D02*
X004432Y006143D01*
X003952Y006283D02*
X003442Y006793D01*
X002982Y006793D01*
X003936Y008263D02*
X003920Y008343D01*
X003884Y008307D02*
X003892Y008293D01*
X005542Y009243D02*
X005542Y003893D01*
X005932Y003943D02*
X005932Y006143D01*
X007182Y006143D01*
X007832Y006793D01*
X007832Y009193D01*
X007832Y009444D02*
X008076Y009444D01*
X008176Y009343D01*
X008176Y009029D01*
X008392Y008813D01*
X008688Y009343D02*
X008732Y009337D01*
X008732Y008643D01*
X009297Y007905D01*
X009382Y007793D01*
X010382Y007793D01*
X010582Y007993D01*
X010582Y012743D01*
X010332Y012993D01*
X009732Y011793D02*
X009626Y011687D01*
X008982Y011687D01*
X008926Y011743D01*
X008482Y011743D01*
X008282Y011614D02*
X008372Y011523D01*
X008382Y011513D01*
X008662Y011254D01*
X008682Y011043D02*
X008802Y010923D01*
X008802Y009473D01*
X008592Y009923D02*
X008352Y009813D01*
X007982Y009813D01*
X008132Y010003D02*
X007779Y010003D01*
X007764Y010007D01*
X007764Y010204D02*
X007393Y010204D01*
X007182Y009993D01*
X007182Y009703D01*
X006982Y010393D02*
X007382Y010793D01*
X007532Y010793D01*
X007532Y010993D02*
X007182Y010993D01*
X006982Y010843D01*
X007132Y011193D02*
X006982Y011293D01*
X007132Y011193D02*
X007532Y011193D01*
X007682Y011393D02*
X007756Y011393D01*
X007764Y011385D01*
X007772Y011383D01*
X007764Y011385D02*
X007764Y011582D01*
X007764Y011779D02*
X008246Y011779D01*
X008282Y011743D01*
X008282Y011614D01*
X008092Y011383D02*
X008332Y011143D01*
X008372Y010933D02*
X008592Y010723D01*
X008592Y009923D01*
X008312Y010043D02*
X008182Y010043D01*
X008132Y010003D01*
X008312Y010253D02*
X008312Y010573D01*
X008092Y011383D02*
X007992Y011383D01*
X007764Y011976D02*
X007782Y011983D01*
X008282Y011983D01*
X009082Y012993D01*
X009332Y012993D01*
X008882Y013893D02*
X008882Y014063D01*
X008332Y013843D02*
X008332Y012993D01*
X007532Y014043D02*
X007532Y014293D01*
X007282Y013093D02*
X007032Y013093D01*
X006932Y012993D01*
X006932Y012743D01*
X007282Y013093D02*
X007482Y012893D01*
X005732Y013749D02*
X005396Y014103D01*
X005932Y009163D02*
X005934Y009161D01*
X006132Y008953D02*
X006132Y008753D01*
X006282Y008603D01*
X006346Y008463D02*
X006442Y008367D01*
X006442Y008173D01*
X006526Y008089D01*
X006526Y008003D01*
X006526Y007747D01*
X006382Y007603D01*
X006092Y008043D02*
X006092Y008133D01*
X006382Y008423D01*
X006522Y008803D02*
X006772Y008553D01*
X006892Y008393D02*
X007062Y008223D01*
X007062Y008093D01*
X007038Y008003D02*
X007038Y007997D01*
X007322Y007713D01*
X007322Y007513D01*
X007342Y007493D01*
X007342Y007003D02*
X006972Y006633D01*
X005942Y006633D01*
X005742Y006833D01*
X005742Y008933D01*
X006327Y009161D02*
X006332Y009166D01*
X006522Y008923D02*
X006522Y008803D01*
X009732Y011143D02*
X009882Y010993D01*
X009732Y011143D02*
X009732Y011793D01*
X009882Y007793D02*
X009882Y007193D01*
X009932Y007193D01*
D28*
X008302Y010573D03*
X006982Y010393D03*
X006982Y010843D03*
X006982Y011293D03*
X006382Y009893D03*
X005882Y009893D03*
X007482Y012893D03*
X006682Y013193D03*
X005282Y013543D03*
X004882Y013743D03*
D29*
X004882Y013513D01*
X005342Y013053D01*
X005342Y012637D01*
X005142Y012843D02*
X005142Y012993D01*
X004717Y013409D01*
X004082Y013409D01*
X002982Y013793D02*
X002882Y013893D01*
X002882Y014807D01*
X002882Y015319D02*
X003536Y015323D01*
X005932Y011693D02*
X005832Y011593D01*
X005932Y011693D02*
X007232Y011693D01*
X007332Y011593D01*
X007532Y011593D01*
X007182Y009703D02*
X007632Y009253D01*
X007832Y009243D01*
X006382Y009893D02*
X006332Y009843D01*
X006332Y009166D01*
X005932Y009163D02*
X005932Y009843D01*
X005882Y009893D01*
X004300Y010992D02*
X003730Y010992D01*
X003582Y010843D01*
X003582Y010393D01*
X003377Y011189D02*
X004300Y011189D01*
X007038Y013643D02*
X007282Y013643D01*
X007532Y013894D01*
X007532Y014043D01*
X005542Y003893D02*
X005542Y003633D01*
X005732Y003443D01*
X006632Y003443D01*
X007132Y002943D01*
X007132Y002793D01*
X006132Y002793D02*
X005332Y003593D01*
X005132Y003393D02*
X005132Y002793D01*
X004942Y003603D02*
X004132Y002793D01*
X004942Y003603D02*
X004942Y003713D01*
D30*
X004602Y007223D02*
X004452Y007373D01*
X004452Y007633D01*
X004448Y007683D02*
X004448Y008263D01*
X004442Y008269D01*
X004442Y008663D01*
X004292Y008813D01*
X004292Y008847D01*
X003936Y008263D02*
X003832Y008267D01*
X003832Y009923D01*
X003912Y010003D01*
X004314Y010003D01*
X003936Y007683D02*
X003942Y007677D01*
X003942Y007163D01*
X003742Y012743D02*
X003692Y012793D01*
X002982Y012793D01*
X006432Y014123D02*
X006562Y014253D01*
X006912Y014253D01*
X006962Y014213D02*
X007132Y014043D01*
X007322Y014043D01*
X007332Y014293D02*
X007332Y014513D01*
X007032Y014813D01*
X009012Y012213D02*
X009422Y012213D01*
D31*
X009422Y012233D03*
X009632Y014843D03*
X010712Y018813D03*
X006422Y014123D03*
X005062Y015483D03*
X006342Y017743D03*
X003752Y012753D03*
X005022Y010313D03*
X006082Y008043D03*
X004602Y007213D03*
X003952Y006283D03*
X008392Y008813D03*
D32*
X003936Y007683D02*
X003826Y007793D01*
X002982Y007793D01*
X006342Y017743D02*
X006442Y017843D01*
X007364Y017843D01*
X010120Y017843D02*
X010120Y018221D01*
X010712Y018813D01*
D33*
X009632Y014833D02*
X009372Y014833D01*
X008872Y014333D01*
X008872Y014003D01*
X004432Y006843D02*
X004432Y006143D01*
X004432Y006843D02*
X003942Y007163D01*
X003936Y007683D02*
X003936Y008263D01*
M02*
