G75*
%MOIN*%
%OFA0B0*%
%FSLAX24Y24*%
%IPPOS*%
%LPD*%
%AMOC8*
5,1,8,0,0,1.08239X$1,22.5*
%
%ADD10R,0.0591X0.0118*%
%ADD11R,0.0118X0.0591*%
%ADD12R,0.0169X0.0110*%
%ADD13R,0.0110X0.0169*%
%ADD14R,0.0354X0.0276*%
%ADD15R,0.0276X0.0354*%
%ADD16R,0.0300X0.0600*%
%ADD17R,0.0630X0.0709*%
%ADD18R,0.0394X0.0433*%
%ADD19R,0.0700X0.2000*%
%ADD20R,0.1181X0.0984*%
D10*
X004300Y009811D03*
X004300Y010007D03*
X004300Y010204D03*
X004300Y010401D03*
X004300Y010598D03*
X004300Y010795D03*
X004300Y010992D03*
X004300Y011189D03*
X004300Y011385D03*
X004300Y011582D03*
X004300Y011779D03*
X004300Y011976D03*
X007764Y011976D03*
X007764Y011779D03*
X007764Y011582D03*
X007764Y011385D03*
X007764Y011189D03*
X007764Y010992D03*
X007764Y010795D03*
X007764Y010598D03*
X007764Y010401D03*
X007764Y010204D03*
X007764Y010007D03*
X007764Y009811D03*
D11*
X007115Y009161D03*
X006918Y009161D03*
X006721Y009161D03*
X006524Y009161D03*
X006327Y009161D03*
X006130Y009161D03*
X005934Y009161D03*
X005737Y009161D03*
X005540Y009161D03*
X005343Y009161D03*
X005146Y009161D03*
X004949Y009161D03*
X004949Y012626D03*
X005146Y012626D03*
X005343Y012626D03*
X005540Y012626D03*
X005737Y012626D03*
X005934Y012626D03*
X006130Y012626D03*
X006327Y012626D03*
X006524Y012626D03*
X006721Y012626D03*
X006918Y012626D03*
X007115Y012626D03*
D12*
X008352Y011134D03*
X008352Y010933D03*
X008662Y011053D03*
X008662Y011254D03*
X008312Y010244D03*
X008312Y010043D03*
X007832Y009444D03*
X007832Y009243D03*
D13*
X008282Y011743D03*
X008482Y011743D03*
X007532Y014043D03*
X007532Y014293D03*
X007332Y014293D03*
X007332Y014043D03*
D14*
X006932Y014277D03*
X006932Y014789D03*
X008982Y012199D03*
X008982Y011687D03*
X004292Y009359D03*
X004292Y008847D03*
X002882Y014807D03*
X002882Y015319D03*
D15*
X003536Y015323D03*
X003536Y014803D03*
X004048Y014803D03*
X004048Y015323D03*
X005396Y014103D03*
X005908Y014103D03*
X006526Y013643D03*
X007038Y013643D03*
X008326Y013893D03*
X008838Y013893D03*
X008688Y009343D03*
X008176Y009343D03*
X007038Y008003D03*
X006858Y008463D03*
X006526Y008003D03*
X006346Y008463D03*
X004448Y008263D03*
X004448Y007683D03*
X003936Y007683D03*
X003936Y008263D03*
D16*
X004432Y003943D03*
X004432Y006143D03*
X005932Y006143D03*
X005932Y003943D03*
D17*
X006241Y007283D03*
X007343Y007283D03*
X006083Y014753D03*
X004981Y014753D03*
D18*
X003992Y014178D03*
X003992Y013509D03*
D19*
X009882Y010993D03*
X009882Y007193D03*
D20*
X010120Y017843D03*
X007364Y017843D03*
M02*
