%
M48
M72
T01C0.0150
T02C0.0197
T03C0.0400
T04C0.0472
%
T01
X5882Y9893
X6382Y9893
X6982Y10393
X6982Y10843
X6982Y11293
X7482Y12893
X6682Y13193
X5282Y13543
X4882Y13743
X8302Y10573
T02
X8392Y8813
X9422Y12233
X9632Y14843
X10712Y18813
X6422Y14123
X5062Y15483
X6342Y17743
X3752Y12753
X5022Y10313
X6082Y8043
X4602Y7213
X3952Y6283
T03
X2982Y2793
X2982Y3793
X2982Y4793
X2982Y5793
X2982Y6793
X2982Y7793
X2982Y8793
X2982Y9793
X2982Y10793
X2982Y11793
X2982Y12793
X2982Y13793
X8332Y12993
X9332Y12993
X10332Y12993
X10332Y14343
X10332Y15343
X7132Y2793
X6132Y2793
X5132Y2793
X4132Y2793
T04
X4442Y15937
X4442Y18693
M30
